<mxfile host="app.diagrams.net" modified="2021-12-14T13:32:47.462Z" agent="5.0 (Windows NT 10.0; Win64; x64) AppleWebKit/537.36 (KHTML, like Gecko) Chrome/96.0.4664.93 Safari/537.36" etag="fEpNh3swizDwrjQKLmxP" version="15.9.6" type="github">
  <diagram id="C5RBs43oDa-KdzZeNtuy" name="Page-1">
    <mxGraphModel dx="3782" dy="1910" grid="1" gridSize="10" guides="1" tooltips="1" connect="1" arrows="1" fold="1" page="1" pageScale="1" pageWidth="827" pageHeight="1169" math="0" shadow="0">
      <root>
        <mxCell id="WIyWlLk6GJQsqaUBKTNV-0" />
        <mxCell id="WIyWlLk6GJQsqaUBKTNV-1" parent="WIyWlLk6GJQsqaUBKTNV-0" />
        <mxCell id="HtBt6UAzXSy0PcppqSnP-1" style="edgeStyle=orthogonalEdgeStyle;rounded=0;orthogonalLoop=1;jettySize=auto;html=1;entryX=0;entryY=0.5;entryDx=0;entryDy=0;" edge="1" parent="WIyWlLk6GJQsqaUBKTNV-1" source="HtBt6UAzXSy0PcppqSnP-0" target="HtBt6UAzXSy0PcppqSnP-3">
          <mxGeometry relative="1" as="geometry">
            <mxPoint x="-570" y="55" as="targetPoint" />
          </mxGeometry>
        </mxCell>
        <mxCell id="HtBt6UAzXSy0PcppqSnP-0" value="Game" style="html=1;" vertex="1" parent="WIyWlLk6GJQsqaUBKTNV-1">
          <mxGeometry x="-780" y="49" width="110" height="50" as="geometry" />
        </mxCell>
        <mxCell id="HtBt6UAzXSy0PcppqSnP-2" value="EntityManager" style="swimlane;fontStyle=1;align=center;verticalAlign=top;childLayout=stackLayout;horizontal=1;startSize=26;horizontalStack=0;resizeParent=1;resizeParentMax=0;resizeLast=0;collapsible=1;marginBottom=0;" vertex="1" parent="WIyWlLk6GJQsqaUBKTNV-1">
          <mxGeometry x="-610" y="16" width="290" height="340" as="geometry" />
        </mxCell>
        <mxCell id="HtBt6UAzXSy0PcppqSnP-3" value="List&lt;Entity*&gt; entities;&#xa;	float accumulatedTime;&#xa;	float updateMsCycle;&#xa;	bool doLogic;" style="text;strokeColor=none;fillColor=none;align=left;verticalAlign=top;spacingLeft=4;spacingRight=4;overflow=hidden;rotatable=0;points=[[0,0.5],[1,0.5]];portConstraint=eastwest;" vertex="1" parent="HtBt6UAzXSy0PcppqSnP-2">
          <mxGeometry y="26" width="290" height="64" as="geometry" />
        </mxCell>
        <mxCell id="HtBt6UAzXSy0PcppqSnP-4" value="" style="line;strokeWidth=1;fillColor=none;align=left;verticalAlign=middle;spacingTop=-1;spacingLeft=3;spacingRight=3;rotatable=0;labelPosition=right;points=[];portConstraint=eastwest;" vertex="1" parent="HtBt6UAzXSy0PcppqSnP-2">
          <mxGeometry y="90" width="290" height="8" as="geometry" />
        </mxCell>
        <mxCell id="HtBt6UAzXSy0PcppqSnP-5" value="EntityManager(bool startEnabled);&#xa;	~EntityManager();&#xa;	//Module Functions&#xa;	bool Awake(pugi::xml_node&amp;);&#xa;	bool Start();&#xa;	bool PreUpdate();&#xa;	bool Update(float dt);&#xa;	bool PostUpdate();&#xa;	bool CleanUp();&#xa;	void OnCollision(PhysBody* bodyA, PhysBody* bodyB);&#xa;	//Updates all the entities&#xa;	void UpdateAll(float dt, bool doLogic);&#xa;	//Util functions&#xa;	Entity* CreateEntity(EntityType type_, iPoint position_);&#xa;	void DestroyAllEntities();&#xa;	void DestroyEntity(Entity* entity);" style="text;strokeColor=none;fillColor=none;align=left;verticalAlign=top;spacingLeft=4;spacingRight=4;overflow=hidden;rotatable=0;points=[[0,0.5],[1,0.5]];portConstraint=eastwest;" vertex="1" parent="HtBt6UAzXSy0PcppqSnP-2">
          <mxGeometry y="98" width="290" height="242" as="geometry" />
        </mxCell>
        <mxCell id="HtBt6UAzXSy0PcppqSnP-6" style="edgeStyle=orthogonalEdgeStyle;rounded=0;orthogonalLoop=1;jettySize=auto;html=1;entryX=0;entryY=0.192;entryDx=0;entryDy=0;entryPerimeter=0;" edge="1" parent="WIyWlLk6GJQsqaUBKTNV-1" source="HtBt6UAzXSy0PcppqSnP-3" target="HtBt6UAzXSy0PcppqSnP-8">
          <mxGeometry relative="1" as="geometry">
            <mxPoint x="-250" y="74" as="targetPoint" />
          </mxGeometry>
        </mxCell>
        <mxCell id="HtBt6UAzXSy0PcppqSnP-7" value="Abstrac Entity" style="swimlane;fontStyle=1;align=center;verticalAlign=top;childLayout=stackLayout;horizontal=1;startSize=26;horizontalStack=0;resizeParent=1;resizeParentMax=0;resizeLast=0;collapsible=1;marginBottom=0;" vertex="1" parent="WIyWlLk6GJQsqaUBKTNV-1">
          <mxGeometry x="-170" y="28" width="230" height="188" as="geometry" />
        </mxCell>
        <mxCell id="HtBt6UAzXSy0PcppqSnP-8" value="EntityType type;&#xa;	bool setPendingToDelete;&#xa;	iPoint position;&#xa;	SDL_Texture* sprite;&#xa;	PhysBody* pbody;&#xa;	Animation anim;&#xa;	int health;" style="text;strokeColor=none;fillColor=none;align=left;verticalAlign=top;spacingLeft=4;spacingRight=4;overflow=hidden;rotatable=0;points=[[0,0.5],[1,0.5]];portConstraint=eastwest;" vertex="1" parent="HtBt6UAzXSy0PcppqSnP-7">
          <mxGeometry y="26" width="230" height="104" as="geometry" />
        </mxCell>
        <mxCell id="HtBt6UAzXSy0PcppqSnP-9" value="" style="line;strokeWidth=1;fillColor=none;align=left;verticalAlign=middle;spacingTop=-1;spacingLeft=3;spacingRight=3;rotatable=0;labelPosition=right;points=[];portConstraint=eastwest;" vertex="1" parent="HtBt6UAzXSy0PcppqSnP-7">
          <mxGeometry y="130" width="230" height="8" as="geometry" />
        </mxCell>
        <mxCell id="HtBt6UAzXSy0PcppqSnP-10" value="Entity(EntityType type_, iPoint position_)&#xa;	virtual void Update(float dt)&#xa;	virtual void Draw()" style="text;strokeColor=none;fillColor=none;align=left;verticalAlign=top;spacingLeft=4;spacingRight=4;overflow=hidden;rotatable=0;points=[[0,0.5],[1,0.5]];portConstraint=eastwest;" vertex="1" parent="HtBt6UAzXSy0PcppqSnP-7">
          <mxGeometry y="138" width="230" height="50" as="geometry" />
        </mxCell>
        <mxCell id="HtBt6UAzXSy0PcppqSnP-12" style="edgeStyle=orthogonalEdgeStyle;rounded=0;orthogonalLoop=1;jettySize=auto;html=1;entryX=1.013;entryY=0.269;entryDx=0;entryDy=0;entryPerimeter=0;exitX=-0.014;exitY=0.063;exitDx=0;exitDy=0;exitPerimeter=0;" edge="1" parent="WIyWlLk6GJQsqaUBKTNV-1" source="HtBt6UAzXSy0PcppqSnP-14" target="HtBt6UAzXSy0PcppqSnP-8">
          <mxGeometry relative="1" as="geometry">
            <mxPoint x="190" y="133" as="sourcePoint" />
          </mxGeometry>
        </mxCell>
        <mxCell id="HtBt6UAzXSy0PcppqSnP-13" value="EntityType" style="swimlane;fontStyle=0;childLayout=stackLayout;horizontal=1;startSize=26;fillColor=none;horizontalStack=0;resizeParent=1;resizeParentMax=0;resizeLast=0;collapsible=1;marginBottom=0;" vertex="1" parent="WIyWlLk6GJQsqaUBKTNV-1">
          <mxGeometry x="200" y="46" width="140" height="170" as="geometry" />
        </mxCell>
        <mxCell id="HtBt6UAzXSy0PcppqSnP-14" value="&#xa;	UNKNOWN = -1,&#xa;	PLAYER,&#xa;	ENEMY_EAGLE,&#xa;	ENEMY_RAT,&#xa;	GEM,&#xa;	CHERRY,&#xa;	CHECKPOINT&#xa;" style="text;strokeColor=none;fillColor=none;align=left;verticalAlign=top;spacingLeft=4;spacingRight=4;overflow=hidden;rotatable=0;points=[[0,0.5],[1,0.5]];portConstraint=eastwest;" vertex="1" parent="HtBt6UAzXSy0PcppqSnP-13">
          <mxGeometry y="26" width="140" height="144" as="geometry" />
        </mxCell>
        <mxCell id="HtBt6UAzXSy0PcppqSnP-17" value="Enemy" style="swimlane;fontStyle=1;align=center;verticalAlign=top;childLayout=stackLayout;horizontal=1;startSize=26;horizontalStack=0;resizeParent=1;resizeParentMax=0;resizeLast=0;collapsible=1;marginBottom=0;" vertex="1" parent="WIyWlLk6GJQsqaUBKTNV-1">
          <mxGeometry x="-460" y="490" width="230" height="330" as="geometry">
            <mxRectangle x="-460" y="490" width="70" height="26" as="alternateBounds" />
          </mxGeometry>
        </mxCell>
        <mxCell id="HtBt6UAzXSy0PcppqSnP-18" value="	int h, w;&#xa;	int speed = 10;&#xa;	const DynArray&lt;iPoint&gt;* currentPath;&#xa;	int range;&#xa;	bool hasTarget = false;&#xa;	float pathUpdateTimer;&#xa;	float pathUpdateTime;&#xa;	iPoint activeNode;&#xa;	int pathIndex;&#xa;	bool facingLeft;" style="text;strokeColor=none;fillColor=none;align=left;verticalAlign=top;spacingLeft=4;spacingRight=4;overflow=hidden;rotatable=0;points=[[0,0.5],[1,0.5]];portConstraint=eastwest;" vertex="1" parent="HtBt6UAzXSy0PcppqSnP-17">
          <mxGeometry y="26" width="230" height="154" as="geometry" />
        </mxCell>
        <mxCell id="HtBt6UAzXSy0PcppqSnP-19" value="" style="line;strokeWidth=1;fillColor=none;align=left;verticalAlign=middle;spacingTop=-1;spacingLeft=3;spacingRight=3;rotatable=0;labelPosition=right;points=[];portConstraint=eastwest;" vertex="1" parent="HtBt6UAzXSy0PcppqSnP-17">
          <mxGeometry y="180" width="230" height="8" as="geometry" />
        </mxCell>
        <mxCell id="HtBt6UAzXSy0PcppqSnP-20" value="Enemy(EntityType type, iPoint position_) ;&#xa;iPoint GetPos();&#xa;	void SetPos(float x, float y);&#xa;bool CheckIfHasTarget();&#xa;bool IsBetween(int value, int a, int b);&#xa;void DrawPath(SDL_Texture* tex);&#xa;int Distance(int x1, int y1, int x2, int y2);&#xa;void ClosestPoint();&#xa;virtual void Update(float dt);&#xa;" style="text;strokeColor=none;fillColor=none;align=left;verticalAlign=top;spacingLeft=4;spacingRight=4;overflow=hidden;rotatable=0;points=[[0,0.5],[1,0.5]];portConstraint=eastwest;" vertex="1" parent="HtBt6UAzXSy0PcppqSnP-17">
          <mxGeometry y="188" width="230" height="142" as="geometry" />
        </mxCell>
        <mxCell id="HtBt6UAzXSy0PcppqSnP-22" value="CheckPoint" style="swimlane;fontStyle=1;align=center;verticalAlign=top;childLayout=stackLayout;horizontal=1;startSize=26;horizontalStack=0;resizeParent=1;resizeParentMax=0;resizeLast=0;collapsible=1;marginBottom=0;" vertex="1" parent="WIyWlLk6GJQsqaUBKTNV-1">
          <mxGeometry x="-161" y="490" width="160" height="120" as="geometry" />
        </mxCell>
        <mxCell id="HtBt6UAzXSy0PcppqSnP-23" value="bool activated = false;" style="text;strokeColor=none;fillColor=none;align=left;verticalAlign=top;spacingLeft=4;spacingRight=4;overflow=hidden;rotatable=0;points=[[0,0.5],[1,0.5]];portConstraint=eastwest;" vertex="1" parent="HtBt6UAzXSy0PcppqSnP-22">
          <mxGeometry y="26" width="160" height="26" as="geometry" />
        </mxCell>
        <mxCell id="HtBt6UAzXSy0PcppqSnP-24" value="" style="line;strokeWidth=1;fillColor=none;align=left;verticalAlign=middle;spacingTop=-1;spacingLeft=3;spacingRight=3;rotatable=0;labelPosition=right;points=[];portConstraint=eastwest;" vertex="1" parent="HtBt6UAzXSy0PcppqSnP-22">
          <mxGeometry y="52" width="160" height="8" as="geometry" />
        </mxCell>
        <mxCell id="HtBt6UAzXSy0PcppqSnP-25" value="CheckPoint(iPoint position_);&#xa;	~CheckPoint();&#xa;	void Update(float dt);" style="text;strokeColor=none;fillColor=none;align=left;verticalAlign=top;spacingLeft=4;spacingRight=4;overflow=hidden;rotatable=0;points=[[0,0.5],[1,0.5]];portConstraint=eastwest;" vertex="1" parent="HtBt6UAzXSy0PcppqSnP-22">
          <mxGeometry y="60" width="160" height="60" as="geometry" />
        </mxCell>
        <mxCell id="HtBt6UAzXSy0PcppqSnP-32" value="Eagle" style="swimlane;fontStyle=0;childLayout=stackLayout;horizontal=1;startSize=26;fillColor=none;horizontalStack=0;resizeParent=1;resizeParentMax=0;resizeLast=0;collapsible=1;marginBottom=0;" vertex="1" parent="WIyWlLk6GJQsqaUBKTNV-1">
          <mxGeometry x="-310" y="1000" width="260" height="110" as="geometry" />
        </mxCell>
        <mxCell id="HtBt6UAzXSy0PcppqSnP-35" value="	Eagle(iPoint position_);&#xa;	~Eagle();&#xa;	void Update(float dt);&#xa;	void ComputePath(float dt);&#xa;	void MoveToPlayer(iPoint destination, float dt);" style="text;strokeColor=none;fillColor=none;align=left;verticalAlign=top;spacingLeft=4;spacingRight=4;overflow=hidden;rotatable=0;points=[[0,0.5],[1,0.5]];portConstraint=eastwest;" vertex="1" parent="HtBt6UAzXSy0PcppqSnP-32">
          <mxGeometry y="26" width="260" height="84" as="geometry" />
        </mxCell>
        <mxCell id="HtBt6UAzXSy0PcppqSnP-37" value="Eagle" style="swimlane;fontStyle=0;childLayout=stackLayout;horizontal=1;startSize=26;fillColor=none;horizontalStack=0;resizeParent=1;resizeParentMax=0;resizeLast=0;collapsible=1;marginBottom=0;" vertex="1" parent="WIyWlLk6GJQsqaUBKTNV-1">
          <mxGeometry x="-620" y="1000" width="260" height="110" as="geometry" />
        </mxCell>
        <mxCell id="HtBt6UAzXSy0PcppqSnP-38" value="	Eagle(iPoint position_);&#xa;	~Eagle();&#xa;	void Update(float dt);&#xa;	void ComputePath(float dt);&#xa;	void MoveToPlayer(iPoint destination, float dt);" style="text;strokeColor=none;fillColor=none;align=left;verticalAlign=top;spacingLeft=4;spacingRight=4;overflow=hidden;rotatable=0;points=[[0,0.5],[1,0.5]];portConstraint=eastwest;" vertex="1" parent="HtBt6UAzXSy0PcppqSnP-37">
          <mxGeometry y="26" width="260" height="84" as="geometry" />
        </mxCell>
        <mxCell id="HtBt6UAzXSy0PcppqSnP-40" value="" style="endArrow=none;html=1;edgeStyle=orthogonalEdgeStyle;rounded=0;exitX=0.002;exitY=1.009;exitDx=0;exitDy=0;exitPerimeter=0;entryX=0.5;entryY=0;entryDx=0;entryDy=0;" edge="1" parent="WIyWlLk6GJQsqaUBKTNV-1" source="HtBt6UAzXSy0PcppqSnP-20" target="HtBt6UAzXSy0PcppqSnP-37">
          <mxGeometry relative="1" as="geometry">
            <mxPoint x="-440" y="870" as="sourcePoint" />
            <mxPoint x="-280" y="870" as="targetPoint" />
            <Array as="points">
              <mxPoint x="-459" y="890" />
              <mxPoint x="-470" y="890" />
            </Array>
          </mxGeometry>
        </mxCell>
        <mxCell id="HtBt6UAzXSy0PcppqSnP-41" value="parent" style="edgeLabel;resizable=0;html=1;align=left;verticalAlign=bottom;" connectable="0" vertex="1" parent="HtBt6UAzXSy0PcppqSnP-40">
          <mxGeometry x="-1" relative="1" as="geometry">
            <mxPoint y="19" as="offset" />
          </mxGeometry>
        </mxCell>
        <mxCell id="HtBt6UAzXSy0PcppqSnP-42" value="child" style="edgeLabel;resizable=0;html=1;align=right;verticalAlign=bottom;" connectable="0" vertex="1" parent="HtBt6UAzXSy0PcppqSnP-40">
          <mxGeometry x="1" relative="1" as="geometry" />
        </mxCell>
        <mxCell id="HtBt6UAzXSy0PcppqSnP-44" value="" style="endArrow=none;html=1;edgeStyle=orthogonalEdgeStyle;rounded=0;exitX=0.796;exitY=1.009;exitDx=0;exitDy=0;exitPerimeter=0;entryX=0.5;entryY=0;entryDx=0;entryDy=0;" edge="1" parent="WIyWlLk6GJQsqaUBKTNV-1" source="HtBt6UAzXSy0PcppqSnP-20" target="HtBt6UAzXSy0PcppqSnP-32">
          <mxGeometry relative="1" as="geometry">
            <mxPoint x="-189.5400000000002" y="821.278" as="sourcePoint" />
            <mxPoint x="-200" y="920" as="targetPoint" />
            <Array as="points">
              <mxPoint x="-277" y="860" />
              <mxPoint x="-190" y="860" />
            </Array>
          </mxGeometry>
        </mxCell>
        <mxCell id="HtBt6UAzXSy0PcppqSnP-45" value="parent" style="edgeLabel;resizable=0;html=1;align=left;verticalAlign=bottom;" connectable="0" vertex="1" parent="HtBt6UAzXSy0PcppqSnP-44">
          <mxGeometry x="-1" relative="1" as="geometry">
            <mxPoint y="19" as="offset" />
          </mxGeometry>
        </mxCell>
        <mxCell id="HtBt6UAzXSy0PcppqSnP-46" value="child" style="edgeLabel;resizable=0;html=1;align=right;verticalAlign=bottom;" connectable="0" vertex="1" parent="HtBt6UAzXSy0PcppqSnP-44">
          <mxGeometry x="1" relative="1" as="geometry" />
        </mxCell>
        <mxCell id="HtBt6UAzXSy0PcppqSnP-47" value="" style="endArrow=none;html=1;edgeStyle=orthogonalEdgeStyle;rounded=0;entryX=0.5;entryY=0;entryDx=0;entryDy=0;" edge="1" parent="WIyWlLk6GJQsqaUBKTNV-1" target="HtBt6UAzXSy0PcppqSnP-22">
          <mxGeometry relative="1" as="geometry">
            <mxPoint x="-80" y="216" as="sourcePoint" />
            <mxPoint x="-80" y="490" as="targetPoint" />
            <Array as="points">
              <mxPoint x="-80" y="490" />
            </Array>
          </mxGeometry>
        </mxCell>
        <mxCell id="HtBt6UAzXSy0PcppqSnP-48" value="parent" style="edgeLabel;resizable=0;html=1;align=left;verticalAlign=bottom;" connectable="0" vertex="1" parent="HtBt6UAzXSy0PcppqSnP-47">
          <mxGeometry x="-1" relative="1" as="geometry">
            <mxPoint y="24" as="offset" />
          </mxGeometry>
        </mxCell>
        <mxCell id="HtBt6UAzXSy0PcppqSnP-49" value="child" style="edgeLabel;resizable=0;html=1;align=right;verticalAlign=bottom;" connectable="0" vertex="1" parent="HtBt6UAzXSy0PcppqSnP-47">
          <mxGeometry x="1" relative="1" as="geometry">
            <mxPoint x="-5" as="offset" />
          </mxGeometry>
        </mxCell>
        <mxCell id="HtBt6UAzXSy0PcppqSnP-50" value="" style="endArrow=none;html=1;edgeStyle=orthogonalEdgeStyle;rounded=0;entryX=0.75;entryY=0;entryDx=0;entryDy=0;" edge="1" parent="WIyWlLk6GJQsqaUBKTNV-1" source="HtBt6UAzXSy0PcppqSnP-10" target="HtBt6UAzXSy0PcppqSnP-17">
          <mxGeometry relative="1" as="geometry">
            <mxPoint x="-110" y="220" as="sourcePoint" />
            <mxPoint x="-310.0000000000002" y="489.65" as="targetPoint" />
            <Array as="points">
              <mxPoint x="-124" y="330" />
              <mxPoint x="-287" y="330" />
            </Array>
          </mxGeometry>
        </mxCell>
        <mxCell id="HtBt6UAzXSy0PcppqSnP-51" value="parent" style="edgeLabel;resizable=0;html=1;align=left;verticalAlign=bottom;" connectable="0" vertex="1" parent="HtBt6UAzXSy0PcppqSnP-50">
          <mxGeometry x="-1" relative="1" as="geometry">
            <mxPoint y="21" as="offset" />
          </mxGeometry>
        </mxCell>
        <mxCell id="HtBt6UAzXSy0PcppqSnP-52" value="child" style="edgeLabel;resizable=0;html=1;align=right;verticalAlign=bottom;" connectable="0" vertex="1" parent="HtBt6UAzXSy0PcppqSnP-50">
          <mxGeometry x="1" relative="1" as="geometry">
            <mxPoint x="-2" as="offset" />
          </mxGeometry>
        </mxCell>
        <mxCell id="HtBt6UAzXSy0PcppqSnP-53" value="Gem" style="swimlane;fontStyle=1;align=center;verticalAlign=top;childLayout=stackLayout;horizontal=1;startSize=26;horizontalStack=0;resizeParent=1;resizeParentMax=0;resizeLast=0;collapsible=1;marginBottom=0;" vertex="1" parent="WIyWlLk6GJQsqaUBKTNV-1">
          <mxGeometry x="60" y="490" width="160" height="60" as="geometry" />
        </mxCell>
        <mxCell id="HtBt6UAzXSy0PcppqSnP-54" value="bool activated = false;" style="text;strokeColor=none;fillColor=none;align=left;verticalAlign=top;spacingLeft=4;spacingRight=4;overflow=hidden;rotatable=0;points=[[0,0.5],[1,0.5]];portConstraint=eastwest;" vertex="1" parent="HtBt6UAzXSy0PcppqSnP-53">
          <mxGeometry y="26" width="160" height="26" as="geometry" />
        </mxCell>
        <mxCell id="HtBt6UAzXSy0PcppqSnP-55" value="" style="line;strokeWidth=1;fillColor=none;align=left;verticalAlign=middle;spacingTop=-1;spacingLeft=3;spacingRight=3;rotatable=0;labelPosition=right;points=[];portConstraint=eastwest;" vertex="1" parent="HtBt6UAzXSy0PcppqSnP-53">
          <mxGeometry y="52" width="160" height="8" as="geometry" />
        </mxCell>
        <mxCell id="HtBt6UAzXSy0PcppqSnP-57" value="Cherry" style="swimlane;fontStyle=1;align=center;verticalAlign=top;childLayout=stackLayout;horizontal=1;startSize=26;horizontalStack=0;resizeParent=1;resizeParentMax=0;resizeLast=0;collapsible=1;marginBottom=0;" vertex="1" parent="WIyWlLk6GJQsqaUBKTNV-1">
          <mxGeometry x="260" y="490" width="160" height="60" as="geometry" />
        </mxCell>
        <mxCell id="HtBt6UAzXSy0PcppqSnP-58" value="bool activated = false;" style="text;strokeColor=none;fillColor=none;align=left;verticalAlign=top;spacingLeft=4;spacingRight=4;overflow=hidden;rotatable=0;points=[[0,0.5],[1,0.5]];portConstraint=eastwest;" vertex="1" parent="HtBt6UAzXSy0PcppqSnP-57">
          <mxGeometry y="26" width="160" height="26" as="geometry" />
        </mxCell>
        <mxCell id="HtBt6UAzXSy0PcppqSnP-59" value="" style="line;strokeWidth=1;fillColor=none;align=left;verticalAlign=middle;spacingTop=-1;spacingLeft=3;spacingRight=3;rotatable=0;labelPosition=right;points=[];portConstraint=eastwest;" vertex="1" parent="HtBt6UAzXSy0PcppqSnP-57">
          <mxGeometry y="52" width="160" height="8" as="geometry" />
        </mxCell>
        <mxCell id="HtBt6UAzXSy0PcppqSnP-60" value="Player" style="swimlane;fontStyle=1;align=center;verticalAlign=top;childLayout=stackLayout;horizontal=1;startSize=26;horizontalStack=0;resizeParent=1;resizeParentMax=0;resizeLast=0;collapsible=1;marginBottom=0;" vertex="1" parent="WIyWlLk6GJQsqaUBKTNV-1">
          <mxGeometry x="460" y="490" width="160" height="60" as="geometry" />
        </mxCell>
        <mxCell id="HtBt6UAzXSy0PcppqSnP-61" value="bool activated = false;" style="text;strokeColor=none;fillColor=none;align=left;verticalAlign=top;spacingLeft=4;spacingRight=4;overflow=hidden;rotatable=0;points=[[0,0.5],[1,0.5]];portConstraint=eastwest;" vertex="1" parent="HtBt6UAzXSy0PcppqSnP-60">
          <mxGeometry y="26" width="160" height="26" as="geometry" />
        </mxCell>
        <mxCell id="HtBt6UAzXSy0PcppqSnP-62" value="" style="line;strokeWidth=1;fillColor=none;align=left;verticalAlign=middle;spacingTop=-1;spacingLeft=3;spacingRight=3;rotatable=0;labelPosition=right;points=[];portConstraint=eastwest;" vertex="1" parent="HtBt6UAzXSy0PcppqSnP-60">
          <mxGeometry y="52" width="160" height="8" as="geometry" />
        </mxCell>
        <mxCell id="HtBt6UAzXSy0PcppqSnP-63" value="UI" style="swimlane;fontStyle=1;align=center;verticalAlign=top;childLayout=stackLayout;horizontal=1;startSize=26;horizontalStack=0;resizeParent=1;resizeParentMax=0;resizeLast=0;collapsible=1;marginBottom=0;" vertex="1" parent="WIyWlLk6GJQsqaUBKTNV-1">
          <mxGeometry x="700" y="490" width="160" height="86" as="geometry" />
        </mxCell>
        <mxCell id="HtBt6UAzXSy0PcppqSnP-64" value="+ field: type" style="text;strokeColor=none;fillColor=none;align=left;verticalAlign=top;spacingLeft=4;spacingRight=4;overflow=hidden;rotatable=0;points=[[0,0.5],[1,0.5]];portConstraint=eastwest;" vertex="1" parent="HtBt6UAzXSy0PcppqSnP-63">
          <mxGeometry y="26" width="160" height="26" as="geometry" />
        </mxCell>
        <mxCell id="HtBt6UAzXSy0PcppqSnP-65" value="" style="line;strokeWidth=1;fillColor=none;align=left;verticalAlign=middle;spacingTop=-1;spacingLeft=3;spacingRight=3;rotatable=0;labelPosition=right;points=[];portConstraint=eastwest;" vertex="1" parent="HtBt6UAzXSy0PcppqSnP-63">
          <mxGeometry y="52" width="160" height="8" as="geometry" />
        </mxCell>
        <mxCell id="HtBt6UAzXSy0PcppqSnP-66" value="+ method(type): type" style="text;strokeColor=none;fillColor=none;align=left;verticalAlign=top;spacingLeft=4;spacingRight=4;overflow=hidden;rotatable=0;points=[[0,0.5],[1,0.5]];portConstraint=eastwest;" vertex="1" parent="HtBt6UAzXSy0PcppqSnP-63">
          <mxGeometry y="60" width="160" height="26" as="geometry" />
        </mxCell>
        <mxCell id="HtBt6UAzXSy0PcppqSnP-67" style="edgeStyle=orthogonalEdgeStyle;rounded=0;orthogonalLoop=1;jettySize=auto;html=1;entryX=0;entryY=0.5;entryDx=0;entryDy=0;" edge="1" parent="WIyWlLk6GJQsqaUBKTNV-1" source="HtBt6UAzXSy0PcppqSnP-61" target="HtBt6UAzXSy0PcppqSnP-64">
          <mxGeometry relative="1" as="geometry" />
        </mxCell>
        <mxCell id="HtBt6UAzXSy0PcppqSnP-68" value="" style="endArrow=none;html=1;edgeStyle=orthogonalEdgeStyle;rounded=0;entryX=0.5;entryY=0;entryDx=0;entryDy=0;exitX=0.955;exitY=1.06;exitDx=0;exitDy=0;exitPerimeter=0;" edge="1" parent="WIyWlLk6GJQsqaUBKTNV-1" source="HtBt6UAzXSy0PcppqSnP-10" target="HtBt6UAzXSy0PcppqSnP-60">
          <mxGeometry relative="1" as="geometry">
            <mxPoint x="100" y="280" as="sourcePoint" />
            <mxPoint x="550" y="489.9999999999998" as="targetPoint" />
            <Array as="points">
              <mxPoint x="50" y="290" />
              <mxPoint x="540" y="290" />
            </Array>
          </mxGeometry>
        </mxCell>
        <mxCell id="HtBt6UAzXSy0PcppqSnP-69" value="parent" style="edgeLabel;resizable=0;html=1;align=left;verticalAlign=bottom;" connectable="0" vertex="1" parent="HtBt6UAzXSy0PcppqSnP-68">
          <mxGeometry x="-1" relative="1" as="geometry">
            <mxPoint y="24" as="offset" />
          </mxGeometry>
        </mxCell>
        <mxCell id="HtBt6UAzXSy0PcppqSnP-70" value="child" style="edgeLabel;resizable=0;html=1;align=right;verticalAlign=bottom;" connectable="0" vertex="1" parent="HtBt6UAzXSy0PcppqSnP-68">
          <mxGeometry x="1" relative="1" as="geometry">
            <mxPoint x="-5" as="offset" />
          </mxGeometry>
        </mxCell>
        <mxCell id="HtBt6UAzXSy0PcppqSnP-71" value="" style="endArrow=none;html=1;edgeStyle=orthogonalEdgeStyle;rounded=0;entryX=0.5;entryY=0;entryDx=0;entryDy=0;" edge="1" parent="WIyWlLk6GJQsqaUBKTNV-1" source="HtBt6UAzXSy0PcppqSnP-10" target="HtBt6UAzXSy0PcppqSnP-57">
          <mxGeometry relative="1" as="geometry">
            <mxPoint x="30" y="220" as="sourcePoint" />
            <mxPoint x="-35" y="509.9999999999998" as="targetPoint" />
            <Array as="points">
              <mxPoint x="10" y="330" />
              <mxPoint x="340" y="330" />
            </Array>
          </mxGeometry>
        </mxCell>
        <mxCell id="HtBt6UAzXSy0PcppqSnP-72" value="parent" style="edgeLabel;resizable=0;html=1;align=left;verticalAlign=bottom;" connectable="0" vertex="1" parent="HtBt6UAzXSy0PcppqSnP-71">
          <mxGeometry x="-1" relative="1" as="geometry">
            <mxPoint y="24" as="offset" />
          </mxGeometry>
        </mxCell>
        <mxCell id="HtBt6UAzXSy0PcppqSnP-73" value="child" style="edgeLabel;resizable=0;html=1;align=right;verticalAlign=bottom;" connectable="0" vertex="1" parent="HtBt6UAzXSy0PcppqSnP-71">
          <mxGeometry x="1" relative="1" as="geometry">
            <mxPoint x="-5" as="offset" />
          </mxGeometry>
        </mxCell>
        <mxCell id="HtBt6UAzXSy0PcppqSnP-74" value="" style="endArrow=none;html=1;edgeStyle=orthogonalEdgeStyle;rounded=0;entryX=0.5;entryY=0;entryDx=0;entryDy=0;" edge="1" parent="WIyWlLk6GJQsqaUBKTNV-1" source="HtBt6UAzXSy0PcppqSnP-10" target="HtBt6UAzXSy0PcppqSnP-53">
          <mxGeometry relative="1" as="geometry">
            <mxPoint x="-30" y="216" as="sourcePoint" />
            <mxPoint x="300" y="490" as="targetPoint" />
            <Array as="points">
              <mxPoint x="-30" y="350" />
              <mxPoint x="140" y="350" />
            </Array>
          </mxGeometry>
        </mxCell>
        <mxCell id="HtBt6UAzXSy0PcppqSnP-75" value="parent" style="edgeLabel;resizable=0;html=1;align=left;verticalAlign=bottom;" connectable="0" vertex="1" parent="HtBt6UAzXSy0PcppqSnP-74">
          <mxGeometry x="-1" relative="1" as="geometry">
            <mxPoint y="24" as="offset" />
          </mxGeometry>
        </mxCell>
        <mxCell id="HtBt6UAzXSy0PcppqSnP-76" value="child" style="edgeLabel;resizable=0;html=1;align=right;verticalAlign=bottom;" connectable="0" vertex="1" parent="HtBt6UAzXSy0PcppqSnP-74">
          <mxGeometry x="1" relative="1" as="geometry">
            <mxPoint x="-5" as="offset" />
          </mxGeometry>
        </mxCell>
      </root>
    </mxGraphModel>
  </diagram>
</mxfile>
